<svg id="svg" version="1.1" width="16" height="16" viewBox="0 0 400 400" xmlns="http://www.w3.org/2000/svg" xmlns:xlink="http://www.w3.org/1999/xlink" ><g id="svgg"><path id="path0" d="M329.893 45.600 C 330.270 46.040,330.716 46.400,330.885 46.400 C 331.054 46.400,330.884 46.040,330.507 45.600 C 330.130 45.160,329.684 44.800,329.515 44.800 C 329.346 44.800,329.516 45.160,329.893 45.600 M235.362 398.458 C 234.604 399.312,234.605 399.314,235.500 398.844 C 235.995 398.584,236.400 398.198,236.400 397.986 C 236.400 397.418,236.209 397.505,235.362 398.458 " stroke="none" fill="#000000" fill-rule="evenodd"></path><path id="path1" d="" stroke="none" fill="#333333" fill-rule="evenodd"></path><path id="path2" d="M254.800 5.754 C 254.800 5.839,255.295 6.227,255.900 6.616 L 257.000 7.324 256.238 6.462 C 255.564 5.699,254.800 5.323,254.800 5.754 M269.488 11.214 C 269.601 11.646,269.942 12.000,270.247 12.000 C 270.854 12.000,270.949 11.619,270.494 11.000 C 269.950 10.260,269.276 10.403,269.488 11.214 M122.000 13.800 C 121.365 14.163,121.227 14.377,121.620 14.386 C 121.961 14.394,122.411 14.237,122.620 14.039 C 122.829 13.840,123.360 13.591,123.800 13.485 L 124.600 13.293 123.800 13.261 C 123.360 13.243,122.550 13.486,122.000 13.800 M96.626 26.357 C 96.476 26.601,96.588 26.803,96.876 26.806 C 97.257 26.811,97.236 26.918,96.800 27.200 C 96.470 27.413,96.403 27.591,96.651 27.594 C 97.244 27.602,98.187 26.453,97.857 26.124 C 97.716 25.982,97.597 26.122,97.594 26.433 C 97.589 26.904,97.529 26.908,97.244 26.457 C 97.004 26.079,96.817 26.049,96.626 26.357 M91.600 29.800 C 91.600 30.130,91.761 30.400,91.957 30.400 C 92.154 30.400,92.418 30.130,92.545 29.800 C 92.685 29.435,92.545 29.200,92.187 29.200 C 91.864 29.200,91.600 29.470,91.600 29.800 M78.996 38.807 C 78.858 39.030,78.549 39.092,78.311 38.945 C 78.064 38.792,77.990 38.861,78.141 39.104 C 78.286 39.339,78.179 39.623,77.902 39.734 C 77.626 39.846,77.784 39.951,78.253 39.968 C 78.787 39.988,79.185 39.700,79.316 39.200 C 79.542 38.334,79.398 38.157,78.996 38.807 M321.384 39.227 C 321.065 39.742,321.142 39.821,322.326 40.186 C 323.231 40.464,323.236 40.451,322.537 39.635 C 321.706 38.664,321.727 38.671,321.384 39.227 M70.300 45.683 C 69.566 46.435,69.814 46.633,70.749 46.040 C 71.051 45.849,71.231 45.529,71.149 45.330 C 71.067 45.130,70.685 45.289,70.300 45.683 M328.832 45.257 C 328.800 45.905,329.916 46.617,330.324 46.209 C 330.439 46.094,330.313 46.000,330.043 46.000 C 329.773 46.000,329.681 45.792,329.838 45.538 C 330.007 45.265,329.949 45.184,329.696 45.341 C 329.461 45.486,329.177 45.379,329.066 45.102 C 328.937 44.782,328.852 44.838,328.832 45.257 M68.096 47.195 C 67.823 47.632,67.600 48.092,67.600 48.218 C 67.600 48.642,68.392 47.962,68.812 47.178 C 69.359 46.155,68.736 46.169,68.096 47.195 M47.100 68.157 C 46.715 68.449,46.400 68.798,46.400 68.932 C 46.400 69.382,47.536 68.744,47.757 68.169 C 48.020 67.483,47.989 67.482,47.100 68.157 M352.000 67.669 C 352.000 68.066,353.606 69.727,353.801 69.532 C 353.909 69.425,353.548 68.914,352.998 68.399 C 352.449 67.883,352.000 67.554,352.000 67.669 M45.483 70.412 C 44.958 71.024,44.931 71.200,45.361 71.200 C 45.665 71.200,46.028 70.904,46.167 70.543 C 46.539 69.573,46.248 69.517,45.483 70.412 M39.600 78.024 C 39.600 78.257,39.375 78.318,39.100 78.159 C 38.825 78.001,38.733 78.019,38.897 78.199 C 39.060 78.379,39.004 78.754,38.774 79.032 C 38.453 79.418,38.547 79.487,39.177 79.322 C 39.868 79.141,40.426 77.600,39.800 77.600 C 39.690 77.600,39.600 77.791,39.600 78.024 M360.112 78.195 C 360.167 78.648,360.552 79.033,361.005 79.088 C 361.442 79.142,361.574 79.084,361.298 78.959 C 361.021 78.834,360.914 78.539,361.059 78.304 C 361.208 78.063,361.137 77.992,360.896 78.141 C 360.661 78.286,360.366 78.179,360.241 77.902 C 360.116 77.626,360.058 77.758,360.112 78.195 M366.626 87.242 C 366.752 87.446,367.009 87.518,367.197 87.402 C 367.386 87.285,367.633 87.507,367.747 87.895 C 367.923 88.495,367.943 88.486,367.877 87.838 C 367.835 87.419,367.484 87.029,367.098 86.973 C 366.712 86.916,366.499 87.037,366.626 87.242 M32.046 88.220 C 32.021 88.671,31.821 89.257,31.601 89.521 C 31.382 89.786,31.490 89.753,31.840 89.449 C 32.190 89.144,32.390 88.558,32.285 88.147 C 32.112 87.474,32.088 87.481,32.046 88.220 M30.400 91.200 C 30.400 91.420,30.130 91.600,29.800 91.600 C 29.470 91.600,29.200 91.786,29.200 92.014 C 29.200 92.295,29.458 92.290,30.000 92.000 C 30.712 91.619,31.121 90.800,30.600 90.800 C 30.490 90.800,30.400 90.980,30.400 91.200 M26.252 96.715 C 26.116 96.936,26.268 97.217,26.589 97.341 C 27.198 97.574,27.859 96.926,27.440 96.507 C 27.308 96.375,27.197 96.522,27.194 96.833 C 27.189 97.304,27.129 97.308,26.844 96.857 C 26.632 96.524,26.405 96.469,26.252 96.715 M384.227 118.830 C 385.078 119.770,385.156 119.780,385.031 118.933 C 384.978 118.567,384.618 118.220,384.232 118.164 C 383.565 118.066,383.565 118.099,384.227 118.830 M13.637 122.311 C 13.353 122.998,13.214 123.793,13.328 124.080 C 13.446 124.374,13.551 124.244,13.568 123.780 C 13.586 123.329,13.800 122.760,14.045 122.515 C 14.290 122.270,14.414 121.843,14.322 121.566 C 14.230 121.289,13.921 121.624,13.637 122.311 M10.678 129.456 C 10.371 129.762,10.711 130.400,11.181 130.400 C 11.364 130.400,11.618 130.130,11.745 129.800 C 11.973 129.205,11.183 128.950,10.678 129.456 M388.533 129.722 C 388.533 130.022,388.778 130.267,389.078 130.267 C 389.685 130.267,389.579 129.526,388.942 129.314 C 388.717 129.239,388.533 129.423,388.533 129.722 M389.846 133.890 C 390.187 135.309,390.317 135.443,390.847 134.913 C 391.158 134.602,391.040 134.240,390.430 133.630 L 389.580 132.780 389.846 133.890 M6.574 143.958 C 6.696 144.155,6.501 144.429,6.140 144.568 C 5.780 144.706,5.575 144.909,5.685 145.019 C 5.795 145.129,6.181 145.105,6.543 144.967 C 7.266 144.689,7.452 143.600,6.776 143.600 C 6.543 143.600,6.452 143.761,6.574 143.958 M3.153 156.300 C 3.127 156.465,3.127 156.735,3.153 156.900 C 3.179 157.065,3.020 157.200,2.800 157.200 C 2.580 157.200,2.400 157.416,2.400 157.680 C 2.400 158.051,2.508 158.052,2.876 157.684 C 3.340 157.220,3.694 156.000,3.365 156.000 C 3.274 156.000,3.179 156.135,3.153 156.300 M396.200 156.400 C 396.046 156.649,395.983 156.892,396.060 156.940 C 396.137 156.987,396.560 157.290,397.000 157.613 C 397.756 158.168,397.767 158.158,397.200 157.439 C 396.870 157.020,396.660 156.600,396.733 156.505 C 396.807 156.411,396.780 156.246,396.673 156.140 C 396.567 156.034,396.354 156.151,396.200 156.400 M397.826 164.522 C 397.969 164.895,398.257 165.200,398.466 165.200 C 398.676 165.200,398.736 165.380,398.600 165.600 C 398.464 165.820,398.543 166.000,398.776 166.000 C 399.443 166.000,399.274 165.391,398.383 164.584 C 397.667 163.936,397.598 163.929,397.826 164.522 M0.000 175.400 C 0.000 175.730,0.180 176.000,0.400 176.000 C 0.620 176.000,0.800 175.730,0.800 175.400 C 0.800 175.070,0.620 174.800,0.400 174.800 C 0.180 174.800,0.000 175.070,0.000 175.400 M1.464 235.166 C 2.329 236.177,2.356 236.182,2.227 235.300 C 2.170 234.915,1.815 234.540,1.437 234.466 C 0.799 234.341,0.801 234.392,1.464 235.166 M2.400 242.416 C 2.400 242.641,2.669 242.928,2.998 243.054 C 3.326 243.181,3.479 243.473,3.336 243.704 C 3.184 243.949,3.269 244.005,3.538 243.838 C 4.132 243.472,4.139 243.497,3.200 242.693 C 2.760 242.316,2.400 242.192,2.400 242.416 M396.060 243.180 C 396.148 243.444,396.351 243.647,396.510 243.630 C 396.988 243.581,396.896 243.032,396.380 242.860 C 396.116 242.772,395.972 242.916,396.060 243.180 M5.614 254.624 C 5.586 255.452,6.656 256.557,6.979 256.034 C 7.145 255.766,7.172 255.439,7.040 255.307 C 6.908 255.175,6.794 255.322,6.786 255.633 C 6.778 255.945,6.514 255.750,6.200 255.200 C 5.886 254.650,5.622 254.391,5.614 254.624 M393.600 255.624 C 393.600 255.857,393.420 255.936,393.200 255.800 C 392.980 255.664,392.800 255.743,392.800 255.976 C 392.800 256.588,393.422 256.497,394.000 255.800 C 394.344 255.385,394.359 255.200,394.049 255.200 C 393.802 255.200,393.600 255.391,393.600 255.624 M8.871 265.462 C 8.942 265.826,9.360 266.175,9.800 266.237 C 10.542 266.341,10.549 266.312,9.906 265.835 C 9.525 265.552,9.330 265.204,9.473 265.060 C 9.616 264.917,9.510 264.800,9.237 264.800 C 8.965 264.800,8.800 265.098,8.871 265.462 M10.514 269.741 C 10.607 270.240,11.221 270.784,11.700 270.794 C 12.366 270.807,11.945 269.679,11.214 269.488 C 10.748 269.366,10.463 269.469,10.514 269.741 M13.200 276.739 C 13.200 276.925,13.560 277.493,14.000 278.000 C 14.440 278.507,14.800 278.715,14.800 278.461 C 14.800 278.208,14.440 277.640,14.000 277.200 C 13.560 276.760,13.200 276.552,13.200 276.739 M14.800 280.346 C 14.800 280.570,14.983 280.866,15.207 281.004 C 15.430 281.142,15.509 281.423,15.383 281.628 C 15.256 281.832,15.433 282.000,15.776 282.000 C 16.119 282.000,16.400 282.210,16.400 282.467 C 16.400 282.723,16.512 282.821,16.650 282.684 C 16.787 282.546,16.427 281.872,15.850 281.186 C 15.272 280.500,14.800 280.122,14.800 280.346 M24.400 299.487 C 24.400 300.003,24.733 300.391,25.300 300.533 C 26.071 300.728,26.108 300.691,25.560 300.280 C 25.208 300.016,24.908 299.650,24.894 299.467 C 24.833 298.712,24.400 298.730,24.400 299.487 M26.000 302.437 C 26.000 302.637,26.191 302.800,26.424 302.800 C 26.657 302.800,26.755 302.950,26.641 303.133 C 26.528 303.317,26.697 303.467,27.018 303.467 C 27.892 303.467,27.718 302.524,26.800 302.284 C 26.360 302.169,26.000 302.238,26.000 302.437 M372.800 303.013 C 372.800 303.660,373.425 303.807,373.774 303.242 C 373.896 303.045,373.726 302.781,373.398 302.654 C 373.035 302.515,372.800 302.656,372.800 303.013 M358.826 323.769 C 358.439 324.235,358.502 324.298,359.177 324.122 C 359.630 324.004,360.000 323.748,360.000 323.553 C 360.000 323.014,359.354 323.132,358.826 323.769 M46.578 330.835 C 46.431 331.074,46.490 331.450,46.710 331.670 C 46.976 331.936,47.199 331.925,47.378 331.635 C 47.526 331.396,47.446 331.200,47.200 331.200 C 46.954 331.200,46.864 331.020,47.000 330.800 C 47.136 330.580,47.157 330.400,47.047 330.400 C 46.937 330.400,46.726 330.596,46.578 330.835 M350.101 334.240 C 349.606 334.804,349.411 335.196,349.667 335.111 C 350.098 334.967,351.480 333.191,351.149 333.207 C 351.067 333.211,350.595 333.676,350.101 334.240 M334.000 350.332 C 333.094 351.215,333.083 351.264,333.878 350.851 C 334.360 350.601,334.873 350.205,335.018 349.971 C 335.510 349.175,335.002 349.355,334.000 350.332 M68.000 352.310 C 68.000 352.727,69.076 354.000,69.429 354.000 C 69.747 354.000,69.603 353.726,68.800 352.800 C 68.360 352.293,68.000 352.072,68.000 352.310 M70.159 354.500 C 70.001 354.775,70.018 354.868,70.196 354.706 C 70.375 354.545,70.755 354.725,71.041 355.106 C 71.511 355.734,71.539 355.714,71.333 354.900 C 71.082 353.901,70.599 353.737,70.159 354.500 M76.000 358.729 C 76.000 358.995,76.539 359.540,77.199 359.941 C 77.858 360.342,78.263 360.818,78.099 360.999 C 77.934 361.180,78.010 361.208,78.266 361.062 C 78.522 360.915,78.823 361.021,78.934 361.298 C 79.089 361.682,79.144 361.684,79.168 361.309 C 79.186 361.039,78.705 360.512,78.100 360.137 C 77.495 359.763,76.775 359.184,76.500 358.852 C 76.177 358.461,76.000 358.418,76.000 358.729 M323.680 358.880 C 323.116 359.444,323.053 360.000,323.553 360.000 C 323.748 360.000,324.001 359.640,324.116 359.200 C 324.360 358.266,324.322 358.238,323.680 358.880 M86.973 367.098 C 87.029 367.484,87.419 367.835,87.838 367.877 C 88.486 367.943,88.495 367.923,87.895 367.747 C 87.507 367.633,87.285 367.386,87.402 367.197 C 87.518 367.009,87.446 366.752,87.242 366.626 C 87.037 366.499,86.916 366.712,86.973 367.098 M96.200 372.886 C 96.640 373.140,97.238 373.585,97.529 373.874 C 97.819 374.163,98.251 374.400,98.487 374.400 C 98.723 374.400,98.431 373.950,97.838 373.400 C 97.244 372.850,96.453 372.405,96.079 372.412 C 95.507 372.422,95.525 372.497,96.200 372.886 M302.654 373.398 C 302.781 373.726,303.045 373.896,303.242 373.774 C 303.807 373.425,303.660 372.800,303.013 372.800 C 302.656 372.800,302.515 373.035,302.654 373.398 M129.149 388.700 C 129.698 389.730,130.267 389.883,130.267 389.000 C 130.267 388.670,130.178 388.488,130.070 388.597 C 129.962 388.705,129.603 388.570,129.271 388.297 C 128.746 387.864,128.731 387.915,129.149 388.700 M264.749 391.065 C 264.247 391.674,264.285 391.687,265.200 391.211 C 266.541 390.514,266.642 390.400,265.916 390.400 C 265.576 390.400,265.051 390.699,264.749 391.065 M255.800 393.200 C 255.936 393.420,255.857 393.600,255.624 393.600 C 255.391 393.600,255.200 393.802,255.200 394.049 C 255.200 394.359,255.385 394.344,255.800 394.000 C 256.497 393.422,256.588 392.800,255.976 392.800 C 255.743 392.800,255.664 392.980,255.800 393.200 M156.217 396.372 C 155.944 396.814,156.575 397.292,156.944 396.922 C 157.325 396.542,157.254 396.000,156.824 396.000 C 156.617 396.000,156.344 396.168,156.217 396.372 M164.600 398.400 C 164.998 398.840,165.504 399.200,165.723 399.200 C 165.943 399.200,165.707 398.840,165.200 398.400 C 164.693 397.960,164.187 397.600,164.077 397.600 C 163.966 397.600,164.202 397.960,164.600 398.400 " stroke="none" fill="#555555" fill-rule="evenodd"></path><path id="path3" d="M174.733 0.343 C 174.660 0.532,172.576 0.788,170.103 0.912 C 166.768 1.079,165.443 1.300,164.974 1.769 C 164.552 2.191,163.523 2.420,161.871 2.461 C 160.512 2.494,159.040 2.531,158.600 2.543 C 158.160 2.555,157.654 2.801,157.475 3.091 C 157.297 3.380,156.982 3.512,156.775 3.385 C 156.569 3.257,156.400 3.343,156.400 3.576 C 156.400 3.821,155.427 4.017,154.100 4.040 C 152.105 4.074,149.082 4.638,150.200 4.766 C 151.460 4.911,149.055 5.589,147.263 5.594 C 145.464 5.599,145.092 5.727,144.916 6.400 C 144.737 7.086,144.370 7.200,142.353 7.200 C 140.533 7.200,139.819 7.381,139.200 8.000 C 138.760 8.440,137.905 8.802,137.300 8.805 C 135.753 8.813,134.372 9.231,134.611 9.618 C 134.918 10.114,134.375 10.314,132.399 10.433 C 130.607 10.541,129.454 11.040,129.781 11.569 C 129.875 11.721,129.200 11.891,128.280 11.945 C 127.360 11.999,126.473 12.283,126.309 12.576 C 126.145 12.869,125.366 13.230,124.577 13.378 C 123.787 13.526,122.570 13.996,121.871 14.422 C 121.172 14.848,120.298 15.198,119.929 15.199 C 119.559 15.199,119.009 15.448,118.706 15.751 C 118.403 16.054,117.568 16.431,116.850 16.589 C 116.133 16.747,115.449 17.128,115.330 17.438 C 115.212 17.747,114.698 18.000,114.190 18.000 C 112.850 18.000,112.000 18.405,112.000 19.043 C 112.000 19.365,111.593 19.600,111.033 19.600 C 109.652 19.600,108.800 19.998,108.800 20.643 C 108.800 21.125,107.442 21.443,106.266 21.236 C 106.082 21.204,105.836 21.542,105.719 21.989 C 105.583 22.507,105.175 22.800,104.586 22.800 C 103.249 22.800,102.400 23.205,102.400 23.843 C 102.400 24.149,102.027 24.400,101.571 24.400 C 100.671 24.400,99.485 25.352,99.886 25.752 C 100.022 25.889,99.697 26.000,99.163 26.000 C 98.626 26.000,97.969 26.357,97.693 26.800 C 97.374 27.310,96.760 27.600,95.997 27.600 C 95.067 27.600,94.800 27.778,94.800 28.400 C 94.800 28.989,94.533 29.200,93.787 29.200 C 93.231 29.200,92.671 29.470,92.545 29.800 C 92.418 30.130,92.064 30.400,91.757 30.400 C 91.451 30.400,90.821 30.779,90.359 31.241 C 89.575 32.025,88.942 32.293,87.700 32.369 C 87.425 32.386,87.200 32.650,87.200 32.957 C 87.200 33.263,86.750 33.626,86.200 33.764 C 85.650 33.902,85.200 34.282,85.200 34.608 C 85.200 34.933,84.840 35.200,84.400 35.200 C 83.960 35.200,83.271 35.529,82.869 35.931 C 82.468 36.332,81.838 36.777,81.469 36.918 C 81.101 37.059,80.800 37.451,80.800 37.787 C 80.800 38.124,80.513 38.400,80.163 38.400 C 79.812 38.400,79.436 38.739,79.328 39.154 C 79.193 39.668,78.631 39.989,77.565 40.159 C 76.558 40.320,76.000 40.622,76.000 41.005 C 76.000 41.332,75.713 41.600,75.363 41.600 C 75.012 41.600,74.631 41.960,74.516 42.400 C 74.400 42.843,73.970 43.200,73.553 43.200 C 73.067 43.200,72.800 43.483,72.800 44.000 C 72.800 44.533,72.533 44.800,72.000 44.800 C 71.560 44.800,71.200 45.067,71.200 45.392 C 71.200 45.718,70.759 46.095,70.221 46.230 C 69.683 46.366,68.955 46.915,68.603 47.451 C 68.252 47.987,67.806 48.327,67.611 48.207 C 67.417 48.087,67.143 48.351,67.002 48.794 C 66.769 49.528,66.553 49.659,65.720 49.570 C 65.566 49.554,65.297 49.926,65.123 50.396 C 64.949 50.866,64.624 51.138,64.401 51.000 C 64.177 50.862,63.879 51.049,63.739 51.415 C 63.414 52.260,61.875 53.809,61.040 54.129 C 60.688 54.264,60.400 54.638,60.400 54.960 C 60.400 55.283,60.040 55.660,59.600 55.800 C 59.160 55.940,58.800 56.291,58.800 56.580 C 58.800 56.870,58.440 57.201,58.000 57.316 C 57.560 57.431,57.200 57.812,57.200 58.163 C 57.200 58.533,56.865 58.800,56.400 58.800 C 55.883 58.800,55.600 59.067,55.600 59.553 C 55.600 59.970,55.243 60.400,54.800 60.516 C 54.360 60.631,54.000 61.000,54.000 61.336 C 54.000 61.671,53.640 62.060,53.200 62.200 C 52.760 62.340,52.400 62.691,52.400 62.980 C 52.400 63.270,52.022 63.606,51.560 63.726 C 51.093 63.849,50.838 64.137,50.985 64.376 C 51.132 64.614,50.837 64.960,50.326 65.149 C 49.817 65.338,49.445 65.606,49.500 65.746 C 49.751 66.383,49.550 66.800,48.991 66.800 C 48.657 66.800,48.178 67.250,47.927 67.800 C 47.677 68.350,47.311 68.800,47.115 68.800 C 46.919 68.800,46.570 69.340,46.340 70.000 C 46.110 70.660,45.669 71.200,45.361 71.200 C 45.052 71.200,44.800 71.560,44.800 72.000 C 44.800 72.533,44.533 72.800,44.000 72.800 C 43.560 72.800,43.200 73.056,43.200 73.368 C 43.200 73.681,42.480 74.664,41.600 75.553 C 40.618 76.544,40.000 77.543,40.000 78.138 C 40.000 78.770,39.722 79.179,39.200 79.316 C 38.760 79.431,38.400 79.791,38.400 80.116 C 38.400 80.441,38.022 80.806,37.560 80.926 C 37.098 81.047,36.831 81.326,36.966 81.546 C 37.102 81.765,36.852 82.199,36.409 82.509 C 35.967 82.818,35.724 83.191,35.869 83.336 C 36.014 83.481,35.923 83.600,35.667 83.600 C 35.410 83.600,35.200 83.939,35.200 84.353 C 35.200 84.770,34.843 85.200,34.400 85.316 C 33.921 85.441,33.600 85.862,33.600 86.363 C 33.600 86.840,33.342 87.200,33.000 87.200 C 32.670 87.200,32.400 87.545,32.400 87.967 C 32.400 89.159,31.969 90.000,31.357 90.000 C 31.051 90.000,30.800 90.354,30.800 90.786 C 30.800 91.218,30.442 91.764,30.004 91.998 C 29.566 92.232,29.227 92.554,29.251 92.712 C 29.445 94.000,29.119 94.800,28.400 94.800 C 27.781 94.800,27.600 95.067,27.600 95.976 C 27.600 96.623,27.392 97.281,27.138 97.438 C 26.825 97.632,26.785 97.543,27.015 97.162 C 27.303 96.683,27.253 96.681,26.677 97.149 C 26.305 97.451,26.000 98.120,26.000 98.635 C 26.000 99.162,25.650 99.759,25.200 100.000 C 24.760 100.235,24.400 100.806,24.400 101.267 C 24.400 101.729,24.085 102.397,23.700 102.753 C 23.315 103.109,22.941 103.819,22.870 104.330 C 22.798 104.842,22.393 105.607,21.970 106.030 C 21.546 106.454,21.200 107.229,21.200 107.753 C 21.200 108.370,20.918 108.781,20.400 108.916 C 19.794 109.075,19.600 109.462,19.600 110.516 C 19.600 111.570,19.406 111.957,18.800 112.116 C 18.184 112.277,18.000 112.662,18.000 113.786 C 18.000 114.590,17.839 115.148,17.642 115.026 C 17.242 114.779,16.800 115.694,16.800 116.770 C 16.800 117.158,16.360 117.987,15.823 118.613 C 15.285 119.238,14.940 119.902,15.055 120.088 C 15.169 120.274,14.898 121.045,14.452 121.802 C 14.006 122.558,13.524 123.800,13.381 124.561 C 13.238 125.322,12.869 126.041,12.561 126.160 C 12.230 126.287,12.000 126.940,12.000 127.755 C 12.000 129.529,11.657 130.400,10.957 130.400 C 10.555 130.400,10.400 130.957,10.400 132.400 C 10.400 134.068,10.279 134.400,9.671 134.400 C 9.075 134.400,8.926 134.767,8.851 136.421 C 8.788 137.799,8.511 138.689,7.979 139.221 C 7.382 139.818,7.200 140.554,7.200 142.373 C 7.200 144.395,7.082 144.784,6.400 145.000 C 5.737 145.211,5.599 145.608,5.594 147.327 C 5.589 149.045,4.890 151.506,4.778 150.200 C 4.676 149.005,4.112 151.736,4.038 153.784 C 3.990 155.110,3.739 156.318,3.476 156.485 C 3.214 156.652,3.157 156.791,3.349 156.794 C 3.541 156.797,3.451 157.099,3.149 157.465 C 2.553 158.186,2.547 158.229,2.459 161.871 C 2.417 163.633,2.199 164.544,1.700 165.043 C 1.125 165.618,0.975 166.638,0.862 170.771 C 0.786 173.537,0.561 175.860,0.362 175.933 C -0.140 176.118,-0.118 224.692,0.384 224.867 C 0.595 224.940,0.796 226.947,0.830 229.327 C 0.882 232.976,1.008 233.763,1.634 234.346 C 2.237 234.908,2.387 235.694,2.436 238.547 C 2.484 241.389,2.636 242.188,3.231 242.743 C 3.797 243.271,3.983 244.092,4.040 246.314 C 4.080 247.901,4.278 249.200,4.480 249.200 C 4.682 249.200,4.736 249.380,4.600 249.600 C 4.464 249.820,4.633 250.000,4.976 250.000 C 5.459 250.000,5.600 250.458,5.600 252.026 C 5.600 254.169,6.185 255.780,6.820 255.388 C 7.044 255.249,7.200 256.148,7.200 257.576 C 7.200 259.156,7.362 260.000,7.667 260.000 C 7.923 260.000,8.022 260.111,7.886 260.248 C 7.750 260.384,7.900 260.757,8.219 261.076 C 8.539 261.396,8.800 262.364,8.800 263.229 C 8.800 264.093,8.991 264.800,9.224 264.800 C 9.457 264.800,9.548 264.961,9.426 265.158 C 9.304 265.355,9.474 265.619,9.802 265.746 C 10.199 265.898,10.400 266.530,10.400 267.625 C 10.400 268.938,10.563 269.318,11.200 269.484 C 11.844 269.653,12.000 270.030,12.000 271.418 C 12.000 272.440,12.252 273.395,12.618 273.760 C 12.957 274.100,13.309 274.965,13.400 275.682 C 13.491 276.399,13.816 277.169,14.123 277.393 C 14.597 277.740,15.031 279.131,15.273 281.082 C 15.306 281.348,15.463 281.485,15.621 281.387 C 16.130 281.073,16.787 282.231,16.613 283.135 C 16.512 283.656,16.753 284.298,17.209 284.723 C 17.630 285.115,18.019 286.013,18.072 286.718 C 18.135 287.540,18.427 288.082,18.885 288.227 C 19.489 288.419,19.814 289.365,19.655 290.476 C 19.634 290.627,19.973 290.864,20.408 291.003 C 21.000 291.190,21.200 291.610,21.200 292.664 C 21.200 293.738,21.391 294.125,22.000 294.284 C 22.443 294.400,22.800 294.830,22.800 295.247 C 22.800 296.414,22.839 296.565,23.279 297.096 C 23.506 297.368,23.850 297.493,24.045 297.372 C 24.240 297.251,24.400 297.513,24.400 297.953 C 24.400 298.393,24.583 298.866,24.807 299.004 C 25.030 299.142,25.121 299.404,25.009 299.586 C 24.896 299.767,25.074 300.019,25.402 300.146 C 25.731 300.272,26.000 300.757,26.000 301.225 C 26.000 301.738,26.317 302.158,26.800 302.284 C 27.406 302.443,27.600 302.830,27.600 303.884 C 27.600 304.938,27.794 305.325,28.400 305.484 C 28.911 305.618,29.200 306.030,29.200 306.624 C 29.200 307.136,29.580 307.820,30.043 308.145 C 30.515 308.476,30.762 308.938,30.603 309.195 C 30.435 309.467,30.646 309.739,31.122 309.864 C 31.645 310.000,32.011 310.535,32.173 311.398 C 32.310 312.127,32.687 312.824,33.011 312.949 C 33.335 313.073,33.600 313.438,33.600 313.760 C 33.600 314.083,33.941 314.454,34.358 314.587 C 34.833 314.737,35.216 315.358,35.382 316.247 C 35.572 317.258,35.815 317.603,36.224 317.446 C 36.541 317.325,36.821 317.444,36.846 317.713 C 36.872 317.981,36.917 318.470,36.946 318.800 C 36.976 319.130,37.230 319.353,37.511 319.296 C 37.792 319.239,38.140 319.509,38.285 319.896 C 38.429 320.283,38.874 320.835,39.274 321.123 C 39.673 321.410,40.000 321.905,40.000 322.223 C 40.000 322.540,40.180 322.800,40.400 322.800 C 40.620 322.800,40.800 323.081,40.800 323.424 C 40.800 323.767,40.980 323.936,41.200 323.800 C 41.568 323.573,41.779 324.122,41.636 324.934 C 41.604 325.118,41.942 325.364,42.389 325.481 C 42.841 325.600,43.200 326.026,43.200 326.447 C 43.200 326.933,43.483 327.200,44.000 327.200 C 44.444 327.200,44.800 327.467,44.800 327.800 C 44.800 328.130,45.075 328.715,45.410 329.100 C 47.546 331.551,48.000 332.175,48.000 332.658 C 48.000 332.956,48.239 333.200,48.532 333.200 C 48.825 333.200,49.646 334.010,50.357 335.000 C 51.068 335.990,51.775 336.800,51.929 336.800 C 52.452 336.800,54.418 338.847,54.213 339.179 C 54.101 339.360,54.367 339.603,54.804 339.717 C 55.242 339.831,55.600 340.191,55.600 340.516 C 55.600 340.841,55.960 341.201,56.400 341.316 C 56.840 341.431,57.200 341.812,57.200 342.163 C 57.200 342.533,57.535 342.800,58.000 342.800 C 58.465 342.800,58.800 343.067,58.800 343.437 C 58.800 343.788,59.160 344.169,59.600 344.284 C 60.043 344.400,60.400 344.830,60.400 345.247 C 60.400 345.733,60.683 346.000,61.200 346.000 C 61.665 346.000,62.000 346.267,62.000 346.637 C 62.000 346.988,62.360 347.369,62.800 347.484 C 63.240 347.599,63.600 347.930,63.600 348.220 C 63.600 348.509,63.960 348.860,64.400 349.000 C 64.840 349.140,65.200 349.512,65.200 349.827 C 65.200 350.142,65.381 350.400,65.603 350.400 C 65.824 350.400,66.391 350.844,66.863 351.386 C 67.335 351.929,67.839 352.300,67.983 352.210 C 68.128 352.121,68.576 352.487,68.979 353.024 C 69.382 353.561,70.047 354.000,70.456 354.000 C 70.870 354.000,71.200 354.283,71.200 354.637 C 71.200 354.988,71.560 355.369,72.000 355.484 C 72.440 355.599,72.800 355.847,72.800 356.034 C 72.800 356.221,73.240 356.605,73.779 356.887 C 74.317 357.169,74.735 357.580,74.707 357.800 C 74.679 358.020,74.975 358.261,75.365 358.336 C 76.064 358.471,76.496 358.782,78.573 360.645 C 79.158 361.170,79.886 361.600,80.191 361.600 C 80.496 361.600,80.860 361.960,81.000 362.400 C 81.140 362.840,81.512 363.200,81.827 363.200 C 82.142 363.200,82.403 363.515,82.406 363.900 C 82.411 364.421,82.497 364.467,82.741 364.081 C 83.004 363.667,83.174 363.687,83.584 364.181 C 83.867 364.521,84.325 364.800,84.602 364.800 C 84.880 364.800,85.197 365.145,85.307 365.566 C 85.417 365.987,85.933 366.397,86.454 366.476 C 86.974 366.554,87.358 366.832,87.306 367.092 C 87.254 367.353,87.833 367.682,88.592 367.825 C 89.439 367.984,90.065 368.374,90.211 368.834 C 90.342 369.246,90.573 369.566,90.724 369.545 C 91.522 369.431,92.000 369.660,92.000 370.155 C 92.000 370.474,92.598 370.823,93.400 370.974 C 94.238 371.131,94.800 371.470,94.800 371.818 C 94.800 372.169,95.189 372.400,95.779 372.400 C 96.318 372.400,97.244 372.850,97.838 373.400 C 98.431 373.950,99.166 374.400,99.471 374.400 C 99.776 374.400,100.129 374.670,100.255 375.000 C 100.382 375.330,100.904 375.600,101.416 375.600 C 101.995 375.600,102.442 375.902,102.600 376.400 C 102.789 376.995,103.205 377.200,104.227 377.200 C 105.134 377.200,105.600 377.389,105.600 377.757 C 105.600 378.402,106.452 378.800,107.833 378.800 C 108.393 378.800,108.800 379.035,108.800 379.357 C 108.800 379.998,109.650 380.400,111.006 380.400 C 111.595 380.400,112.041 380.699,112.200 381.200 C 112.389 381.795,112.805 382.000,113.827 382.000 C 114.734 382.000,115.200 382.189,115.200 382.557 C 115.200 383.202,116.052 383.600,117.433 383.600 C 117.986 383.600,118.400 383.835,118.400 384.149 C 118.400 384.478,119.028 384.798,119.972 384.949 C 120.836 385.087,121.830 385.487,122.180 385.837 C 122.857 386.515,123.543 386.720,125.287 386.769 C 126.083 386.792,126.313 386.961,126.145 387.400 C 125.976 387.840,126.219 388.016,127.057 388.061 C 127.686 388.094,128.380 388.164,128.600 388.215 C 128.820 388.266,129.180 388.350,129.400 388.401 C 129.620 388.453,129.948 388.469,130.130 388.437 C 130.311 388.406,130.353 388.552,130.223 388.762 C 129.877 389.323,130.496 389.583,132.659 389.786 C 133.735 389.887,134.782 390.234,135.029 390.571 C 135.272 390.904,136.148 391.260,136.976 391.363 C 137.804 391.466,138.792 391.831,139.172 392.175 C 139.605 392.567,140.611 392.800,141.870 392.800 C 143.368 392.800,144.059 393.003,144.600 393.600 C 145.152 394.210,145.832 394.400,147.462 394.400 C 149.067 394.400,149.800 394.600,150.400 395.200 C 151.056 395.856,151.733 396.000,154.153 396.000 C 156.770 396.000,157.131 396.091,157.316 396.800 C 157.505 397.524,157.862 397.600,161.074 397.600 C 164.127 397.600,164.718 397.712,165.307 398.400 C 165.919 399.114,166.487 399.200,170.596 399.200 C 173.399 399.200,175.200 399.357,175.200 399.600 C 175.200 400.138,224.680 400.153,224.867 399.616 C 224.940 399.404,227.045 399.204,229.545 399.171 C 233.416 399.119,234.202 398.998,234.845 398.355 C 235.472 397.728,236.204 397.600,239.153 397.600 C 242.370 397.600,242.727 397.524,242.916 396.800 C 243.102 396.089,243.462 396.000,246.139 396.000 C 247.797 396.000,249.266 395.817,249.404 395.593 C 249.542 395.370,249.823 395.291,250.028 395.417 C 250.232 395.544,250.400 395.367,250.400 395.024 C 250.400 394.482,253.036 394.083,254.876 394.345 C 255.027 394.366,255.264 394.027,255.403 393.592 C 255.629 392.880,257.477 392.561,259.836 392.827 C 259.966 392.841,260.281 392.579,260.536 392.245 C 260.791 391.910,261.754 391.549,262.676 391.443 C 263.597 391.337,264.840 390.930,265.437 390.539 C 266.035 390.147,266.811 389.807,267.162 389.782 C 267.513 389.757,268.205 389.706,268.700 389.668 C 269.195 389.631,269.600 389.360,269.600 389.067 C 269.600 388.773,269.825 388.507,270.100 388.475 C 270.375 388.443,271.050 388.346,271.600 388.260 C 272.150 388.173,272.915 388.079,273.300 388.051 C 273.685 388.023,274.000 387.730,274.000 387.400 C 274.000 386.979,274.425 386.800,275.426 386.800 C 277.052 386.800,278.536 386.144,278.188 385.580 C 277.996 385.270,279.756 384.985,280.876 385.145 C 281.027 385.166,281.264 384.827,281.403 384.392 C 281.629 383.679,282.491 383.391,283.879 383.565 C 284.143 383.598,284.554 383.260,284.793 382.813 C 285.085 382.268,285.631 382.000,286.452 382.000 C 287.338 382.000,287.732 381.780,287.884 381.200 C 288.049 380.569,288.430 380.400,289.684 380.400 C 290.938 380.400,291.319 380.231,291.484 379.600 C 291.641 378.999,292.030 378.800,293.047 378.800 C 294.103 378.800,294.400 378.635,294.400 378.051 C 294.400 377.487,294.794 377.239,295.999 377.047 C 296.939 376.896,297.556 376.591,297.499 376.305 C 297.444 376.038,297.805 375.757,298.300 375.682 C 298.795 375.606,299.200 375.358,299.200 375.129 C 299.200 374.901,299.470 374.818,299.800 374.945 C 300.130 375.071,300.400 375.001,300.400 374.787 C 300.400 374.574,300.683 374.400,301.029 374.400 C 301.774 374.400,302.869 373.403,302.514 373.048 C 302.378 372.911,302.657 372.800,303.133 372.800 C 303.610 372.800,304.342 372.458,304.761 372.039 C 305.524 371.276,306.748 370.727,307.292 370.905 C 307.453 370.957,307.870 370.592,308.220 370.093 C 308.569 369.595,309.035 369.298,309.254 369.434 C 309.474 369.569,309.753 369.302,309.874 368.840 C 310.020 368.282,310.414 368.000,311.051 368.000 C 311.577 368.000,312.316 367.640,312.693 367.200 C 313.070 366.760,313.596 366.400,313.862 366.400 C 314.128 366.400,314.456 366.053,314.591 365.628 C 314.726 365.202,315.351 364.743,315.985 364.603 C 316.616 364.465,317.233 364.092,317.354 363.776 C 317.476 363.459,317.941 363.200,318.387 363.200 C 319.115 363.200,319.387 362.787,319.247 361.900 C 319.221 361.735,319.538 361.600,319.951 361.600 C 320.364 361.600,320.949 361.248,321.251 360.818 C 321.553 360.388,322.070 359.983,322.400 359.918 C 322.730 359.853,323.235 359.485,323.523 359.100 C 323.810 358.715,324.261 358.400,324.525 358.400 C 324.790 358.400,325.626 357.725,326.385 356.900 C 327.144 356.075,327.903 355.443,328.071 355.496 C 328.239 355.549,328.568 355.234,328.802 354.796 C 329.036 354.358,329.473 354.000,329.771 354.000 C 330.070 354.000,330.422 353.719,330.554 353.375 C 330.686 353.031,330.957 352.850,331.155 352.972 C 331.354 353.095,331.619 352.926,331.746 352.598 C 331.872 352.269,332.251 352.000,332.587 352.000 C 332.924 352.000,333.200 351.796,333.200 351.546 C 333.200 350.915,335.116 349.200,335.821 349.200 C 336.139 349.200,336.400 348.932,336.400 348.603 C 336.400 348.275,336.760 347.782,337.200 347.507 C 337.640 347.232,338.000 346.781,338.000 346.504 C 338.000 346.227,338.360 346.000,338.800 346.000 C 339.250 346.000,339.600 345.733,339.600 345.390 C 339.600 345.055,340.050 344.609,340.600 344.400 C 341.150 344.191,341.600 343.745,341.600 343.410 C 341.600 343.074,341.870 342.800,342.200 342.800 C 342.530 342.800,342.800 342.461,342.800 342.047 C 342.800 341.630,343.157 341.200,343.600 341.084 C 344.040 340.969,344.400 340.588,344.400 340.237 C 344.400 339.867,344.735 339.600,345.200 339.600 C 345.665 339.600,346.000 339.333,346.000 338.963 C 346.000 338.612,346.360 338.231,346.800 338.116 C 347.240 338.001,347.600 337.641,347.600 337.316 C 347.600 336.991,347.960 336.631,348.400 336.516 C 348.840 336.401,349.200 336.067,349.200 335.774 C 349.200 335.105,350.936 333.200,351.546 333.200 C 351.796 333.200,352.000 332.924,352.000 332.587 C 352.000 332.251,352.269 331.872,352.598 331.746 C 352.926 331.619,353.095 331.354,352.972 331.155 C 352.850 330.957,353.031 330.686,353.375 330.554 C 353.719 330.422,354.000 330.070,354.000 329.771 C 354.000 329.473,354.360 329.035,354.800 328.800 C 355.240 328.565,355.600 328.108,355.600 327.786 C 355.600 327.464,355.876 327.200,356.213 327.200 C 356.549 327.200,356.945 326.885,357.092 326.500 C 357.384 325.737,357.777 325.189,359.000 323.844 C 359.852 322.906,360.000 322.634,360.000 322.000 C 360.000 321.780,360.225 321.645,360.500 321.700 C 360.775 321.755,360.955 321.575,360.900 321.300 C 360.845 321.025,360.980 320.800,361.200 320.800 C 361.420 320.800,361.600 320.542,361.600 320.227 C 361.600 319.912,361.960 319.540,362.400 319.400 C 362.840 319.260,363.200 318.888,363.200 318.573 C 363.200 318.258,363.560 317.640,364.000 317.200 C 364.440 316.760,364.800 316.040,364.800 315.600 C 364.800 315.148,365.067 314.800,365.413 314.800 C 365.749 314.800,366.138 314.485,366.277 314.100 C 366.415 313.715,366.859 313.078,367.264 312.684 C 367.669 312.291,368.000 311.526,368.000 310.984 C 368.000 310.306,368.222 310.000,368.715 310.000 C 369.168 310.000,369.454 309.673,369.497 309.108 C 369.534 308.617,369.842 308.012,370.182 307.764 C 370.522 307.515,370.800 307.134,370.800 306.917 C 370.800 306.700,371.173 306.092,371.629 305.567 C 372.085 305.041,372.557 304.116,372.678 303.512 C 372.798 302.908,373.041 302.502,373.216 302.610 C 373.392 302.719,373.743 302.180,373.996 301.413 C 374.249 300.646,374.663 300.059,374.915 300.109 C 375.168 300.159,375.476 299.570,375.600 298.800 C 375.724 298.030,376.030 297.440,376.280 297.489 C 376.529 297.538,376.851 296.880,376.995 296.028 C 377.174 294.969,377.501 294.415,378.029 294.277 C 378.610 294.125,378.800 293.721,378.800 292.637 C 378.800 291.675,378.984 291.200,379.357 291.200 C 379.969 291.200,380.400 290.359,380.400 289.167 C 380.400 288.745,380.651 288.400,380.957 288.400 C 381.574 288.400,382.000 287.558,382.000 286.339 C 382.000 285.901,382.270 285.273,382.599 284.943 C 382.929 284.614,383.311 283.862,383.447 283.272 C 383.584 282.682,383.960 281.989,384.282 281.731 C 384.604 281.473,384.966 280.532,385.085 279.639 C 385.205 278.747,385.461 278.114,385.654 278.234 C 386.163 278.548,386.700 276.943,386.769 274.900 C 386.787 274.380,387.054 274.000,387.400 274.000 C 387.730 274.000,388.013 273.685,388.030 273.300 C 388.093 271.805,388.429 270.714,389.002 270.141 C 389.589 269.554,389.646 269.337,389.803 267.088 C 389.846 266.476,390.170 265.756,390.524 265.488 C 390.884 265.215,391.277 264.119,391.416 263.000 C 391.553 261.900,391.932 260.791,392.259 260.536 C 392.586 260.281,392.841 259.966,392.827 259.836 C 392.561 257.477,392.880 255.629,393.592 255.403 C 394.027 255.264,394.366 255.027,394.345 254.876 C 394.090 253.086,394.483 250.400,395.000 250.400 C 395.330 250.400,395.579 250.265,395.553 250.100 C 395.527 249.935,395.549 249.665,395.603 249.500 C 395.858 248.713,395.903 248.210,395.950 245.647 C 395.992 243.318,396.115 242.863,396.748 242.698 C 397.399 242.527,397.505 242.052,397.564 239.017 C 397.619 236.243,397.784 235.369,398.373 234.737 C 398.992 234.072,399.122 233.215,399.172 229.472 C 399.205 227.012,399.404 224.940,399.616 224.867 C 399.856 224.783,400.000 215.455,400.000 200.000 C 400.000 184.545,399.856 175.217,399.616 175.133 C 399.404 175.060,399.204 172.975,399.172 170.500 C 399.133 167.645,398.957 166.000,398.689 166.000 C 398.457 166.000,398.384 165.883,398.527 165.740 C 398.670 165.596,398.527 165.281,398.209 165.040 C 397.798 164.727,397.610 163.638,397.558 161.268 C 397.498 158.503,397.359 157.856,396.743 157.472 C 396.131 157.089,396.000 156.501,396.000 154.127 C 396.000 152.543,395.817 151.134,395.593 150.996 C 395.370 150.858,395.279 150.596,395.391 150.414 C 395.504 150.233,395.326 149.981,394.998 149.854 C 394.568 149.689,394.400 149.008,394.400 147.427 C 394.400 145.638,394.251 145.148,393.600 144.800 C 392.945 144.450,392.800 143.962,392.800 142.117 C 392.800 140.722,392.582 139.622,392.227 139.230 C 391.699 138.646,391.314 137.207,391.233 135.513 C 391.212 135.072,390.985 134.908,390.600 135.055 C 390.206 135.207,389.985 135.031,389.956 134.543 C 389.754 131.112,389.431 129.810,388.869 130.157 C 388.685 130.271,388.517 130.148,388.497 129.882 C 388.353 127.958,387.943 126.548,387.417 126.163 C 387.078 125.915,386.800 125.169,386.800 124.505 C 386.800 123.841,386.532 123.076,386.204 122.804 C 385.877 122.532,385.698 122.165,385.807 121.989 C 385.916 121.813,385.829 121.608,385.614 121.534 C 385.399 121.460,385.141 120.950,385.041 120.400 C 384.941 119.850,384.825 119.310,384.782 119.200 C 384.740 119.090,384.727 118.865,384.753 118.700 C 384.779 118.535,384.589 118.445,384.330 118.500 C 384.067 118.556,383.703 117.842,383.502 116.877 C 383.305 115.929,382.886 115.055,382.572 114.934 C 382.257 114.813,382.000 114.206,382.000 113.584 C 382.000 112.805,381.751 112.375,381.200 112.200 C 380.599 112.009,380.400 111.595,380.400 110.536 C 380.400 109.462,380.209 109.075,379.600 108.916 C 379.092 108.783,378.800 108.370,378.800 107.786 C 378.800 106.449,378.395 105.600,377.757 105.600 C 377.288 105.600,376.973 104.329,377.145 103.124 C 377.166 102.973,376.827 102.736,376.392 102.597 C 375.925 102.449,375.597 101.988,375.594 101.473 C 375.587 100.443,375.046 99.476,374.584 99.666 C 374.404 99.740,374.125 99.305,373.963 98.700 C 373.802 98.095,373.771 97.600,373.896 97.600 C 374.020 97.600,373.735 97.264,373.261 96.853 C 372.788 96.442,372.400 95.812,372.400 95.453 C 372.400 95.094,372.138 94.800,371.818 94.800 C 371.470 94.800,371.131 94.239,370.974 93.404 C 370.830 92.635,370.570 92.095,370.395 92.203 C 370.221 92.311,369.890 91.859,369.660 91.200 C 369.430 90.540,368.982 90.000,368.665 90.000 C 368.324 90.000,367.982 89.432,367.827 88.606 C 367.684 87.839,367.353 87.254,367.092 87.306 C 366.832 87.358,366.554 86.974,366.476 86.454 C 366.397 85.933,365.987 85.417,365.566 85.307 C 365.145 85.197,364.794 84.813,364.787 84.453 C 364.772 83.685,363.816 82.317,363.508 82.625 C 363.392 82.742,363.181 82.379,363.040 81.819 C 362.900 81.258,362.518 80.800,362.192 80.800 C 361.867 80.800,361.600 80.461,361.600 80.047 C 361.600 79.630,361.243 79.200,360.800 79.084 C 360.279 78.948,360.000 78.538,360.000 77.910 C 360.000 77.378,359.550 76.553,359.000 76.075 C 358.450 75.597,358.000 75.024,358.000 74.803 C 358.000 74.581,357.779 74.445,357.509 74.500 C 357.240 74.555,356.960 74.213,356.887 73.741 C 356.814 73.268,356.387 72.785,355.937 72.668 C 355.456 72.542,355.235 72.267,355.400 72.000 C 355.566 71.732,355.337 71.456,354.840 71.326 C 354.378 71.206,354.000 70.850,354.000 70.535 C 354.000 70.221,353.550 69.514,353.000 68.964 C 352.450 68.414,352.000 67.702,352.000 67.382 C 352.000 67.062,351.730 66.800,351.400 66.800 C 351.070 66.800,350.800 66.647,350.800 66.459 C 350.800 65.974,348.472 63.600,347.997 63.600 C 347.778 63.600,347.600 63.342,347.600 63.027 C 347.600 62.712,347.259 62.346,346.843 62.214 C 346.427 62.082,345.994 61.619,345.881 61.187 C 345.767 60.754,345.388 60.400,345.037 60.400 C 344.667 60.400,344.400 60.065,344.400 59.600 C 344.400 59.067,344.133 58.800,343.600 58.800 C 343.067 58.800,342.800 58.533,342.800 58.000 C 342.800 57.467,342.533 57.200,342.000 57.200 C 341.560 57.200,341.200 56.936,341.200 56.614 C 341.200 56.292,340.840 55.835,340.400 55.600 C 339.960 55.365,339.600 54.908,339.600 54.586 C 339.600 54.264,339.240 54.000,338.800 54.000 C 338.360 54.000,338.021 53.865,338.047 53.700 C 338.160 52.987,337.973 52.400,337.633 52.400 C 337.431 52.400,336.516 51.680,335.600 50.800 C 334.684 49.920,333.769 49.200,333.567 49.200 C 333.365 49.200,333.200 48.930,333.200 48.600 C 333.200 48.270,332.913 48.000,332.563 48.000 C 332.212 48.000,331.831 47.640,331.716 47.200 C 331.601 46.760,331.182 46.400,330.786 46.400 C 329.638 46.400,328.800 45.960,328.800 45.357 C 328.800 45.051,328.440 44.800,328.000 44.800 C 327.467 44.800,327.200 44.533,327.200 44.000 C 327.200 43.467,326.933 43.200,326.400 43.200 C 325.960 43.200,325.600 42.933,325.600 42.608 C 325.600 42.282,325.150 41.902,324.600 41.764 C 324.050 41.626,323.600 41.277,323.600 40.988 C 323.600 40.700,323.060 40.345,322.400 40.200 C 321.740 40.055,321.200 39.676,321.200 39.358 C 321.200 39.040,320.750 38.609,320.200 38.400 C 319.650 38.191,319.200 37.839,319.200 37.618 C 319.200 37.396,318.742 37.100,318.181 36.960 C 317.621 36.819,317.260 36.607,317.378 36.489 C 317.794 36.073,316.692 35.200,315.751 35.200 C 315.172 35.200,314.800 34.965,314.800 34.600 C 314.800 34.270,314.540 34.000,314.223 34.000 C 313.905 34.000,313.402 33.653,313.105 33.228 C 312.807 32.804,312.047 32.327,311.414 32.168 C 310.782 32.009,309.711 31.276,309.035 30.540 C 308.236 29.669,307.436 29.200,306.749 29.200 C 306.030 29.200,305.627 28.945,305.484 28.400 C 305.359 27.920,304.938 27.600,304.434 27.600 C 303.971 27.600,303.284 27.240,302.907 26.800 C 302.530 26.360,301.812 26.000,301.311 26.000 C 300.810 26.000,300.445 25.789,300.500 25.531 C 300.555 25.273,299.880 24.852,299.000 24.595 C 298.111 24.335,297.400 23.877,297.400 23.564 C 297.400 22.998,297.245 22.942,295.400 22.850 C 294.836 22.822,294.400 22.557,294.400 22.243 C 294.400 21.671,293.573 21.200,292.567 21.200 C 292.255 21.200,291.640 20.840,291.200 20.400 C 290.760 19.960,290.040 19.600,289.600 19.600 C 289.160 19.600,288.440 19.240,288.000 18.800 C 287.559 18.359,286.667 18.000,286.013 18.000 C 285.107 18.000,284.881 17.853,285.062 17.384 C 285.192 17.045,285.141 16.805,284.949 16.851 C 284.115 17.051,281.600 16.266,281.600 15.805 C 281.600 15.527,281.032 15.186,280.338 15.048 C 279.644 14.909,278.816 14.579,278.498 14.315 C 277.887 13.808,277.587 13.709,275.502 13.330 C 274.786 13.199,274.056 12.846,273.880 12.546 C 273.680 12.204,272.838 12.000,271.627 12.000 C 270.030 12.000,269.657 11.861,269.484 11.200 C 269.312 10.541,268.938 10.400,267.371 10.400 C 266.324 10.400,265.585 10.282,265.730 10.137 C 266.317 9.550,264.999 8.800,263.380 8.800 C 262.407 8.800,261.404 8.547,261.076 8.219 C 260.757 7.900,260.384 7.750,260.248 7.886 C 260.111 8.022,260.000 7.923,260.000 7.667 C 260.000 7.387,259.343 7.200,258.362 7.200 C 257.430 7.200,256.266 6.885,255.662 6.470 C 255.071 6.064,253.728 5.693,252.637 5.636 C 250.885 5.543,249.326 4.807,249.825 4.308 C 249.928 4.206,248.708 4.084,247.115 4.037 C 245.141 3.979,243.832 3.720,243.009 3.223 C 242.156 2.708,240.916 2.476,238.800 2.436 C 236.693 2.396,235.669 2.205,235.360 1.796 C 235.119 1.475,234.808 1.325,234.670 1.463 C 234.532 1.601,234.190 1.528,233.910 1.302 C 233.629 1.075,231.510 0.861,229.200 0.825 C 226.890 0.790,224.940 0.590,224.867 0.381 C 224.698 -0.102,174.921 -0.139,174.733 0.343 M295.302 77.913 C 295.249 78.415,294.868 79.315,294.456 79.913 C 294.045 80.511,293.083 81.990,292.318 83.200 C 289.940 86.965,286.087 92.918,284.809 94.800 C 284.137 95.790,282.787 97.770,281.809 99.200 C 280.832 100.630,279.486 102.700,278.819 103.800 C 278.151 104.900,277.262 106.250,276.842 106.800 C 276.423 107.350,275.044 109.420,273.779 111.400 C 272.514 113.380,270.128 117.070,268.477 119.600 C 266.826 122.130,263.772 126.810,261.690 130.000 C 259.609 133.190,257.535 136.331,257.082 136.980 C 255.362 139.443,250.114 147.417,249.960 147.800 C 249.790 148.226,243.133 158.376,240.046 162.916 C 237.827 166.181,235.590 169.576,234.098 171.942 C 233.494 172.901,231.395 176.141,229.433 179.142 C 227.472 182.144,225.240 185.559,224.473 186.732 C 222.708 189.433,222.752 190.381,224.797 193.747 C 225.708 195.246,226.563 196.772,226.698 197.136 C 226.833 197.501,227.541 198.591,228.271 199.558 C 229.002 200.524,229.600 201.471,229.600 201.662 C 229.600 201.853,230.384 203.222,231.343 204.705 C 232.301 206.187,234.090 209.020,235.318 211.000 C 236.546 212.980,238.056 215.376,238.675 216.324 C 239.294 217.272,240.181 218.712,240.647 219.524 C 241.113 220.336,242.232 222.170,243.134 223.600 C 244.035 225.030,245.685 227.730,246.800 229.600 C 247.915 231.470,249.567 234.170,250.471 235.600 C 251.375 237.030,252.876 239.460,253.806 241.000 C 254.735 242.540,256.594 245.510,257.937 247.600 C 259.279 249.690,261.018 252.480,261.802 253.800 C 262.585 255.120,264.255 257.870,265.513 259.912 C 266.771 261.954,269.132 265.824,270.759 268.512 C 272.386 271.200,273.941 273.670,274.214 274.000 C 275.611 275.688,276.920 278.879,276.362 279.232 C 275.111 280.024,237.274 279.674,236.463 278.863 C 235.813 278.213,234.386 275.876,226.902 263.200 C 224.897 259.804,225.001 259.981,222.786 256.200 C 221.884 254.660,220.255 251.960,219.166 250.200 C 217.306 247.194,214.535 242.650,212.508 239.282 C 212.017 238.467,211.490 237.530,211.335 237.200 C 211.181 236.870,210.487 235.700,209.794 234.600 C 207.860 231.531,206.034 228.478,204.291 225.400 C 202.527 222.285,201.318 220.800,200.547 220.800 C 199.719 220.800,198.183 222.936,185.451 241.800 C 181.590 247.520,177.749 253.201,176.916 254.424 C 176.082 255.647,175.220 256.931,175.000 257.277 C 174.780 257.622,171.900 261.804,168.600 266.569 C 162.844 274.880,161.935 276.218,158.800 281.003 C 158.030 282.178,156.603 284.278,155.628 285.670 C 154.654 287.061,152.911 289.596,151.755 291.303 C 150.599 293.010,149.281 294.879,148.827 295.457 C 147.759 296.814,147.778 297.853,148.880 298.443 C 149.552 298.803,172.526 298.844,246.291 298.617 C 323.619 298.379,342.942 298.420,343.428 298.823 C 344.106 299.386,343.917 309.272,343.144 313.600 C 342.928 314.810,342.606 317.297,342.429 319.126 C 342.252 320.956,341.922 322.638,341.696 322.864 C 341.067 323.493,106.670 324.824,104.144 324.214 C 102.672 323.858,102.720 322.876,104.317 320.678 C 105.146 319.535,106.127 318.150,106.496 317.600 C 106.865 317.050,107.893 315.610,108.781 314.400 C 109.668 313.190,111.023 311.300,111.791 310.200 C 112.560 309.100,114.639 306.130,116.411 303.600 C 118.183 301.070,120.661 297.520,121.917 295.711 C 123.172 293.901,124.830 291.535,125.600 290.451 C 126.370 289.368,128.063 286.978,129.362 285.141 C 130.661 283.303,132.424 280.810,133.280 279.600 C 137.432 273.731,139.846 270.279,142.233 266.800 C 143.667 264.710,145.630 261.920,146.595 260.600 C 147.559 259.280,148.855 257.481,149.474 256.603 C 150.093 255.725,151.940 253.115,153.578 250.803 C 155.216 248.491,157.421 245.340,158.478 243.800 C 159.534 242.260,160.894 240.280,161.499 239.400 C 162.969 237.261,176.260 218.469,177.199 217.200 C 177.607 216.650,179.162 214.400,180.656 212.200 C 182.150 210.000,184.348 206.873,185.539 205.250 C 188.211 201.612,188.372 200.315,186.516 197.393 C 185.820 196.297,184.204 193.630,182.925 191.466 C 179.246 185.241,178.373 183.805,174.012 176.800 C 169.084 168.885,163.550 159.826,161.794 156.800 C 161.092 155.590,159.690 153.250,158.678 151.600 C 157.667 149.950,155.921 147.070,154.799 145.200 C 153.677 143.330,151.966 140.540,150.997 139.000 C 150.028 137.460,148.866 135.570,148.414 134.800 C 147.962 134.030,146.064 130.909,144.196 127.864 C 140.599 122.000,140.240 120.955,141.700 120.591 C 142.195 120.468,151.085 120.419,161.455 120.483 L 180.310 120.600 181.132 121.600 C 181.583 122.150,182.413 123.500,182.977 124.600 C 183.540 125.700,184.392 127.230,184.870 128.000 C 185.348 128.770,186.271 130.390,186.921 131.600 C 187.571 132.810,188.710 134.719,189.452 135.841 C 190.193 136.964,190.800 138.012,190.800 138.169 C 190.800 138.327,191.312 139.208,191.938 140.128 C 192.563 141.048,194.138 143.653,195.438 145.919 C 196.737 148.184,198.160 150.646,198.600 151.389 C 199.040 152.133,200.461 154.599,201.759 156.871 C 203.056 159.142,205.081 162.606,206.259 164.569 C 207.436 166.532,208.400 168.258,208.400 168.405 C 208.400 168.551,208.831 168.868,209.357 169.108 C 210.432 169.597,210.971 169.151,212.870 166.200 C 213.436 165.320,215.112 162.710,216.594 160.400 C 218.076 158.090,219.873 155.300,220.588 154.200 C 221.302 153.100,223.554 149.500,225.591 146.200 C 227.629 142.900,229.883 139.300,230.600 138.200 C 231.318 137.100,234.201 132.600,237.006 128.200 C 239.812 123.800,242.849 119.046,243.754 117.635 C 250.276 107.471,252.612 103.226,252.118 102.441 C 251.497 101.456,209.044 101.020,168.000 101.576 C 120.561 102.219,55.427 102.155,54.854 101.465 C 54.287 100.782,54.987 88.988,55.822 85.143 C 56.140 83.681,56.403 81.611,56.406 80.543 C 56.409 79.474,56.583 78.330,56.791 78.000 C 57.341 77.129,77.563 76.983,195.600 76.992 L 295.400 77.000 295.302 77.913 " stroke="none" fill="#868686" fill-rule="evenodd"></path><path id="path4" d="M76.485 77.192 C 54.823 77.425,56.417 77.159,56.406 80.543 C 56.403 81.611,56.140 83.681,55.822 85.143 C 54.987 88.988,54.287 100.782,54.854 101.465 C 55.427 102.155,120.561 102.219,168.000 101.576 C 209.044 101.020,251.497 101.456,252.118 102.441 C 252.612 103.226,250.276 107.471,243.754 117.635 C 242.849 119.046,239.812 123.800,237.006 128.200 C 234.201 132.600,231.318 137.100,230.600 138.200 C 229.883 139.300,227.629 142.900,225.591 146.200 C 223.554 149.500,221.302 153.100,220.588 154.200 C 219.873 155.300,218.076 158.090,216.594 160.400 C 215.112 162.710,213.436 165.320,212.870 166.200 C 210.971 169.151,210.432 169.597,209.357 169.108 C 208.831 168.868,208.400 168.551,208.400 168.405 C 208.400 168.258,207.436 166.532,206.259 164.569 C 205.081 162.606,203.056 159.142,201.759 156.871 C 200.461 154.599,199.040 152.133,198.600 151.389 C 198.160 150.646,196.737 148.184,195.438 145.919 C 194.138 143.653,192.563 141.048,191.938 140.128 C 191.312 139.208,190.800 138.327,190.800 138.169 C 190.800 138.012,190.193 136.964,189.452 135.841 C 188.710 134.719,187.571 132.810,186.921 131.600 C 186.271 130.390,185.348 128.770,184.870 128.000 C 184.392 127.230,183.540 125.700,182.977 124.600 C 182.413 123.500,181.583 122.150,181.132 121.600 L 180.310 120.600 161.455 120.483 C 151.085 120.419,142.195 120.468,141.700 120.591 C 140.240 120.955,140.599 122.000,144.196 127.864 C 146.064 130.909,147.962 134.030,148.414 134.800 C 148.866 135.570,150.028 137.460,150.997 139.000 C 151.966 140.540,153.677 143.330,154.799 145.200 C 155.921 147.070,157.667 149.950,158.678 151.600 C 159.690 153.250,161.092 155.590,161.794 156.800 C 163.550 159.826,169.084 168.885,174.012 176.800 C 178.373 183.805,179.246 185.241,182.925 191.466 C 184.204 193.630,185.820 196.297,186.516 197.393 C 188.372 200.315,188.211 201.612,185.539 205.250 C 184.348 206.873,182.150 210.000,180.656 212.200 C 179.162 214.400,177.607 216.650,177.199 217.200 C 176.260 218.469,162.969 237.261,161.499 239.400 C 160.894 240.280,159.534 242.260,158.478 243.800 C 157.421 245.340,155.216 248.491,153.578 250.803 C 151.940 253.115,150.093 255.725,149.474 256.603 C 148.855 257.481,147.559 259.280,146.595 260.600 C 145.630 261.920,143.667 264.710,142.233 266.800 C 139.846 270.279,137.432 273.731,133.280 279.600 C 132.424 280.810,130.661 283.303,129.362 285.141 C 128.063 286.978,126.370 289.368,125.600 290.451 C 124.830 291.535,123.172 293.901,121.917 295.711 C 120.661 297.520,118.183 301.070,116.411 303.600 C 114.639 306.130,112.560 309.100,111.791 310.200 C 111.023 311.300,109.668 313.190,108.781 314.400 C 107.893 315.610,106.865 317.050,106.496 317.600 C 106.127 318.150,105.146 319.535,104.317 320.678 C 102.720 322.876,102.672 323.858,104.144 324.214 C 106.670 324.824,341.067 323.493,341.696 322.864 C 341.922 322.638,342.252 320.956,342.429 319.126 C 342.606 317.297,342.928 314.810,343.144 313.600 C 343.917 309.272,344.106 299.386,343.428 298.823 C 342.942 298.420,323.619 298.379,246.291 298.617 C 172.526 298.844,149.552 298.803,148.880 298.443 C 147.778 297.853,147.759 296.814,148.827 295.457 C 149.281 294.879,150.599 293.010,151.755 291.303 C 152.911 289.596,154.654 287.061,155.628 285.670 C 156.603 284.278,158.030 282.178,158.800 281.003 C 161.935 276.218,162.844 274.880,168.600 266.569 C 171.900 261.804,174.780 257.622,175.000 257.277 C 175.220 256.931,176.082 255.647,176.916 254.424 C 177.749 253.201,181.590 247.520,185.451 241.800 C 198.183 222.936,199.719 220.800,200.547 220.800 C 201.318 220.800,202.527 222.285,204.291 225.400 C 206.034 228.478,207.860 231.531,209.794 234.600 C 210.487 235.700,211.181 236.870,211.335 237.200 C 211.490 237.530,212.017 238.467,212.508 239.282 C 214.535 242.650,217.306 247.194,219.166 250.200 C 220.255 251.960,221.884 254.660,222.786 256.200 C 232.078 272.063,235.752 278.152,236.463 278.863 C 237.274 279.674,275.111 280.024,276.362 279.232 C 276.920 278.879,275.611 275.688,274.214 274.000 C 273.941 273.670,272.386 271.200,270.759 268.512 C 269.132 265.824,266.771 261.954,265.513 259.912 C 264.255 257.870,262.585 255.120,261.802 253.800 C 261.018 252.480,259.279 249.690,257.937 247.600 C 256.594 245.510,254.735 242.540,253.806 241.000 C 252.876 239.460,251.375 237.030,250.471 235.600 C 249.567 234.170,247.915 231.470,246.800 229.600 C 245.685 227.730,244.035 225.030,243.134 223.600 C 242.232 222.170,241.113 220.336,240.647 219.524 C 240.181 218.712,239.294 217.272,238.675 216.324 C 238.056 215.376,236.546 212.980,235.318 211.000 C 234.090 209.020,232.301 206.187,231.343 204.705 C 230.384 203.222,229.600 201.853,229.600 201.662 C 229.600 201.471,229.002 200.524,228.271 199.558 C 227.541 198.591,226.833 197.501,226.698 197.136 C 226.563 196.772,225.708 195.246,224.797 193.747 C 222.752 190.381,222.708 189.433,224.473 186.732 C 225.240 185.559,227.472 182.144,229.433 179.142 C 231.395 176.141,233.494 172.901,234.098 171.942 C 235.590 169.576,237.827 166.181,240.046 162.916 C 243.133 158.376,249.790 148.226,249.960 147.800 C 250.114 147.417,255.362 139.443,257.082 136.980 C 257.535 136.331,259.609 133.190,261.690 130.000 C 263.772 126.810,266.826 122.130,268.477 119.600 C 270.128 117.070,272.514 113.380,273.779 111.400 C 275.044 109.420,276.423 107.350,276.842 106.800 C 277.262 106.250,278.151 104.900,278.819 103.800 C 279.486 102.700,280.832 100.630,281.809 99.200 C 282.787 97.770,284.137 95.790,284.809 94.800 C 286.087 92.918,289.940 86.965,292.318 83.200 C 293.083 81.990,294.045 80.511,294.456 79.913 C 294.868 79.315,295.249 78.415,295.302 77.913 L 295.400 77.000 195.600 76.992 C 140.710 76.988,87.108 77.078,76.485 77.192 " stroke="none" fill="#fdfdfd" fill-rule="evenodd"></path></g></svg>
